<svg xmlns="http://www.w3.org/2000/svg" version="1.1" xmlns:xlink="http://www.w3.org/1999/xlink" xmlns:svgjs="http://svgjs.dev/svgjs" width="1500" height="1500" viewBox="0 0 1500 1500"><rect width="1500" height="1500" fill="#ffffff"></rect><g transform="matrix(0.6666666666666666,0,0,0.6666666666666666,249.39393939393938,435.99032258064517)"><svg viewBox="0 0 396 248" data-background-color="#c8c8c8" preserveAspectRatio="xMidYMid meet" height="939" width="1500" xmlns="http://www.w3.org/2000/svg" xmlns:xlink="http://www.w3.org/1999/xlink"><g id="tight-bounds" transform="matrix(1,0,0,1,0.2400000000000091,0.4000000000000057)"><svg viewBox="0 0 395.52 247.2" height="247.2" width="395.52"><g><svg></svg></g><g><svg viewBox="0 0 395.52 247.2" height="247.2" width="395.52"><g transform="matrix(1,0,0,1,75.54432,95.91820318710833)"><svg viewBox="0 0 244.43135999999998 55.36359362578334" height="55.36359362578334" width="244.43135999999998"><g><svg viewBox="0 0 244.43135999999998 55.36359362578334" height="55.36359362578334" width="244.43135999999998"><g><svg viewBox="0 0 244.43136 55.363593625783345" height="55.36359362578334" width="244.43135999999998"><g><svg viewBox="0 0 244.43136 55.363593625783345" height="55.363593625783345" width="244.43136"><g id="textblocktransform"><svg viewBox="0 0 244.43136 55.363593625783345" height="55.363593625783345" width="244.43136" id="textblock"><g><svg viewBox="0 0 244.43136 55.363593625783345" height="55.363593625783345" width="244.43136"><g transform="matrix(1,0,0,1,0,0)"><svg width="244.43136" viewBox="0.7 -37.35 223.38000000000002 50.6" height="55.363593625783345" data-palette-color="#000000"><g class="wordmark-text-0" data-fill-palette-color="primary" id="text-0"><path d="M5.45-22.75L5.45-22.75Q5.7-28 7.43-31.2 9.15-34.4 11.68-35.85 14.2-37.3 16.8-37.3L16.8-37.3Q21.3-37.3 23.1-35L23.1-35Q23-33.15 22.5-31.8 22-30.45 21.15-29.15L21.15-29.15 18.45-29.15Q17.65-31.75 16.57-33 15.5-34.25 14.2-34.45L14.2-34.45Q13.1-33.2 12.5-30.78 11.9-28.35 11.9-24.35L11.9-24.35Q11.9-22.55 11.9-20.03 11.9-17.5 11.93-14.6 11.95-11.7 12-8.8 12.05-5.9 12.1-3.4L12.1-3.4 17.3-1.85 16.55 0Q15.7-0.05 14.3-0.08 12.9-0.1 11.4-0.13 9.9-0.15 8.7-0.15L8.7-0.15Q7.2-0.1 5.18-0.08 3.15-0.05 1.6 0L1.6 0 0.75-1.85 5.1-2.9Q5.2-6.25 5.2-9.15 5.2-12.05 5.23-15.25 5.25-18.45 5.45-22.75ZM0.7-18.3L1.5-21 17.2-21 17.8-17Q13.55-17.45 9.2-17.88 4.85-18.3 0.7-18.3L0.7-18.3ZM24.3-9.15L24.3-9.15 26.7-8.55Q25.55-6.55 25.55-5.55L25.55-5.55Q25.55-4.2 27-3.9 28.45-3.6 30.45-3.5L30.45-3.5Q32-3.4 33.65-3.18 35.3-2.95 36.72-2.27 38.15-1.6 39.02-0.18 39.9 1.25 39.9 3.75L39.9 3.75Q39.9 6.2 38.57 8.38 37.25 10.55 34.5 11.9 31.75 13.25 27.55 13.25L27.55 13.25Q24.35 13.25 22.2 12.3 20.05 11.35 18.95 9.8 17.85 8.25 17.85 6.5L17.85 6.5Q17.85 4.3 19.52 2.23 21.2 0.15 24.6-1L24.6-1 25.55-0.45Q24.55 0.75 24.07 1.95 23.6 3.15 23.6 4.3L23.6 4.3Q23.6 6.55 25.42 8.1 27.25 9.65 30.5 9.65L30.5 9.65Q32.6 9.65 34.25 8.68 35.9 7.7 35.9 5.5L35.9 5.5Q35.9 3.9 34.02 3.08 32.15 2.25 27.45 2.25L27.45 2.25Q24.2 2.25 22.1 1 20-0.25 20-3.15L20-3.15Q21.55-5.15 22.45-6.45 23.35-7.75 24.3-9.15ZM26.95-19.45L26.95-19.45Q25.95-18.75 25.57-17.3 25.2-15.85 25.2-14.65L25.2-14.65Q25.2-13.35 25.8-11.95 26.4-10.55 27.45-9.6 28.5-8.65 29.9-8.65L29.9-8.65Q30.75-9.05 31.27-10.4 31.8-11.75 31.8-13.45L31.8-13.45Q31.8-14.75 31.1-16.13 30.4-17.5 29.3-18.48 28.2-19.45 26.95-19.45ZM28.3-21.55L28.3-21.55Q31.75-21.55 33.87-20.48 36-19.4 37-17.68 38-15.95 38-14L38-14Q38-11.9 36.9-10.13 35.8-8.35 33.6-7.28 31.4-6.2 28.1-6.2L28.1-6.2Q25.2-6.2 23.12-7.23 21.05-8.25 19.95-9.95 18.85-11.65 18.85-13.7L18.85-13.7Q18.85-15.8 19.92-17.57 21-19.35 23.1-20.45 25.2-21.55 28.3-21.55ZM42.95-21.15L42.95-21.15Q42.95-19.9 42.9-18.43 42.85-16.95 42.85-16.25L42.85-16.25Q40.4-17.3 38.57-17.85 36.75-18.4 35-18.6L35-18.6 32.65-20.5Q34.25-20.7 36.35-20.85 38.45-21 40.27-21.08 42.1-21.15 42.95-21.15ZM65.2-37.35L65.2-37.35Q65.2-34.15 65.17-30.35 65.15-26.55 65.15-21.7L65.15-21.7Q65.15-17.65 65.15-13.88 65.15-10.1 65.17-7.23 65.2-4.35 65.25-2.9L65.25-2.9 69-1.85 68.25 0Q66.95-0.1 65.7-0.1 64.45-0.1 62.65-0.1L62.65-0.1Q61.3-0.1 60.4-0.08 59.5-0.05 58.8 0L58.8 0Q58.75-1 58.62-1.88 58.5-2.75 58.4-3.7L58.4-3.7Q58.45-5.95 58.47-8.2 58.5-10.45 58.5-12.55L58.5-12.55Q58.5-14 58.5-15.4 58.5-16.8 58.45-18.3L58.45-18.3Q58.45-20.6 58.37-23.3 58.3-26 58.17-28.7 58.05-31.4 57.85-33.6L57.85-33.6 53.8-34.25 53.35-36.4Q54.2-36.4 55.7-36.5 57.2-36.6 58.97-36.73 60.75-36.85 62.4-37.02 64.05-37.2 65.2-37.35ZM52.15-21.8L52.15-21.8Q54.9-21.8 57-20.35 59.09-18.9 60.05-16.25L60.05-16.25 58.5-12Q58.5-13.75 57.77-15.18 57.05-16.6 56-17.53 54.95-18.45 54-18.65L54-18.65Q52-18.05 50.87-15.9 49.75-13.75 49.75-10.95L49.75-10.95Q49.75-7.15 51.2-5.3 52.65-3.45 54.5-3.45L54.5-3.45Q56.25-3.45 57.82-5.35 59.4-7.25 60-10.35L60-10.35 61.55-8.1Q60.2-4.45 57.87-2.05 55.55 0.35 52.15 0.35L52.15 0.35Q49.9 0.35 47.77-0.93 45.65-2.2 44.3-4.73 42.95-7.25 42.95-11.05L42.95-11.05Q42.95-14.6 44.35-17 45.75-19.4 47.87-20.6 50-21.8 52.15-21.8ZM82.69-21.8L82.69-21.8Q85.34-21.8 87.29-20.18 89.24-18.55 89.24-15.25L89.24-15.25Q89.24-13.1 89.17-11.65 89.09-10.2 89.02-9.08 88.94-7.95 88.94-6.75L88.94-6.75Q88.94-5.35 89.12-4.78 89.29-4.2 90.09-4.2L90.09-4.2Q90.79-4.2 92.19-4.85L92.19-4.85 93.09-2.65Q91.29-1.4 89.64-0.58 87.99 0.25 86.14 0.25L86.14 0.25Q84.59 0.25 83.44-0.98 82.29-2.2 82.29-4.85L82.29-4.85Q82.29-7.3 82.52-9.68 82.74-12.05 82.74-13.9L82.74-13.9Q82.74-15.45 82.29-16.4 81.84-17.35 80.79-17.7L80.79-17.7Q78.49-17.6 76.39-16.85 74.29-16.1 72.09-14.95L72.09-14.95 70.79-17.1Q73.64-19.2 76.57-20.5 79.49-21.8 82.69-21.8ZM86.24-13.95L86.24-13.95 83.24-9.8Q82.14-9.55 81.29-9.3 80.44-9.05 79.74-8.9L79.74-8.9Q78.04-8.55 77.39-8.03 76.74-7.5 76.74-6.2L76.74-6.2Q76.74-5.15 77.29-4.55 77.84-3.95 78.79-3.95L78.79-3.95Q79.94-3.95 81.72-5.03 83.49-6.1 84.74-7.75L84.74-7.75 85.69-5.7Q84.89-4.7 83.42-3.25 81.94-1.8 79.89-0.68 77.84 0.45 75.39 0.45L75.39 0.45Q74.14 0.45 72.97-0.23 71.79-0.9 71.02-2.25 70.24-3.6 70.24-5.6L70.24-5.6Q70.24-7.7 71.52-8.88 72.79-10.05 74.99-10.7 77.19-11.35 79.84-11.8L79.84-11.8Q81.64-12.1 83.19-12.58 84.74-13.05 86.24-13.95ZM94.99-1.3L94.99-1.3Q95.39-3.2 95.67-4.48 95.94-5.75 96.14-7.25L96.14-7.25 98.64-7.25 99.44-3.35Q100.09-2.8 100.99-2.5 101.89-2.2 102.79-2.2L102.79-2.2Q104.04-2.2 105.02-2.8 105.99-3.4 105.99-4.65L105.99-4.65Q105.99-5.7 105.22-6.38 104.44-7.05 103.24-7.58 102.04-8.1 100.69-8.63 99.34-9.15 98.14-9.95 96.94-10.75 96.17-11.95 95.39-13.15 95.39-15L95.39-15Q95.39-17.55 96.64-19.03 97.89-20.5 99.92-21.15 101.94-21.8 104.19-21.8L104.19-21.8Q105.94-21.8 107.84-21.4 109.74-21 111.29-20.25L111.29-20.25Q110.89-18.5 110.57-17.15 110.24-15.8 109.99-14.5L109.99-14.5 107.39-14.55 106.74-17.95Q105.84-19.15 103.79-19.15L103.79-19.15Q102.69-19.15 101.77-18.65 100.84-18.15 100.84-17L100.84-17Q100.84-15.9 101.64-15.23 102.44-14.55 103.72-14.05 104.99-13.55 106.44-12.98 107.89-12.4 109.17-11.55 110.44-10.7 111.24-9.38 112.04-8.05 112.04-6L112.04-6Q112.04-3.6 110.74-2.18 109.44-0.75 107.29-0.13 105.14 0.5 102.64 0.5L102.64 0.5Q100.74 0.5 98.79 0.1 96.84-0.3 94.99-1.3ZM124.64-37.25L124.64-37.25Q124.64-32.2 124.64-27.75 124.64-23.3 124.61-19.9 124.59-16.5 124.54-14.55L124.54-14.55 124.69-2.9 128.39-1.85 127.69 0Q126.04-0.1 124.41-0.13 122.79-0.15 120.79-0.15L120.79-0.15Q118.84-0.15 117.14-0.1 115.44-0.05 113.99 0L113.99 0 113.14-1.85 117.49-2.9Q117.64-6.15 117.71-10.05 117.79-13.95 117.79-17.9L117.79-17.9Q117.79-22.35 117.66-26.2 117.54-30.05 117.24-33.65L117.24-33.65 113.34-34.3 112.79-36.35Q115.29-36.4 118.34-36.65 121.39-36.9 124.64-37.25ZM133.04-21.75L133.04-21.75Q136.14-21.75 137.96-19.6 139.79-17.45 139.99-14.05L139.99-14.05Q140.09-13.15 140.04-11.23 139.99-9.3 139.96-7.05 139.94-4.8 139.94-2.9L139.94-2.9 143.64-1.85 142.89 0Q140.19-0.15 136.39-0.15L136.39-0.15Q134.49-0.15 132.94-0.1 131.39-0.05 130.09 0L130.09 0 129.39-1.85 133.04-2.9Q133.14-4.6 133.19-5.78 133.24-6.95 133.26-8.13 133.29-9.3 133.24-10.9L133.24-10.9Q133.19-14.4 132.01-15.7 130.84-17 128.49-17L128.49-17Q126.29-15.55 125.41-13.55 124.54-11.55 124.59-9.65L124.59-9.65 122.79-11.85Q123.14-14.7 124.56-16.95 125.99-19.2 128.19-20.48 130.39-21.75 133.04-21.75ZM156.74-21.7L156.74-21.7Q160.44-21.7 162.91-20.15 165.39-18.6 166.61-16.1 167.84-13.6 167.84-10.7L167.84-10.7Q167.84-7.75 166.59-5.18 165.34-2.6 162.84-1.05 160.34 0.5 156.59 0.5L156.59 0.5Q152.84 0.5 150.29-1.07 147.74-2.65 146.44-5.25 145.14-7.85 145.14-10.8L145.14-10.8Q145.14-13.7 146.41-16.18 147.69-18.65 150.26-20.18 152.84-21.7 156.74-21.7ZM152.14-11.85L152.14-11.85Q152.14-9.35 152.71-7.1 153.29-4.85 154.44-3.45 155.59-2.05 157.19-2.05L157.19-2.05Q159.09-2.05 160.01-4.13 160.94-6.2 160.94-9.3L160.94-9.3Q160.94-11.8 160.36-14.03 159.79-16.25 158.66-17.68 157.54-19.1 155.89-19.1L155.89-19.1Q153.99-19.1 153.06-17.03 152.14-14.95 152.14-11.85ZM179.08-27.6L179.08-27.6Q178.98-25.85 178.93-23.53 178.88-21.2 178.86-18.73 178.83-16.25 178.86-14 178.88-11.75 178.91-10.1 178.93-8.45 178.98-7.8L178.98-7.8Q179.08-5.95 179.63-5.2 180.18-4.45 181.38-4.45L181.38-4.45Q182.23-4.45 183.18-4.75 184.13-5.05 185.68-6L185.68-6 186.68-4Q185.43-2.95 184.01-1.9 182.58-0.85 180.91-0.18 179.23 0.5 177.18 0.5L177.18 0.5Q176.03 0.5 174.93 0.03 173.83-0.45 173.16-1.63 172.48-2.8 172.48-4.8L172.48-4.8Q172.48-4.75 172.51-5.7 172.53-6.65 172.56-8.22 172.58-9.8 172.63-11.55 172.68-13.3 172.71-14.85 172.73-16.4 172.76-17.38 172.78-18.35 172.78-18.25L172.78-18.25Q172.73-18.8 172.16-19.2 171.58-19.6 170.83-19.9 170.08-20.2 169.48-20.45 168.88-20.7 168.83-21L168.83-21Q170.03-21.2 170.88-21.4 171.73-21.6 172.73-21.85L172.73-21.85Q173.83-23.3 174.71-24.58 175.58-25.85 176.73-27.6L176.73-27.6Q177.18-27.6 177.88-27.6 178.58-27.6 179.08-27.6ZM168.83-21L185.98-21.05 185.98-17.4 168.83-18.4 168.83-21ZM198.03-21.85L198.03-21.85Q200.53-21.85 202.66-20.75 204.78-19.65 206.06-17.43 207.33-15.2 207.33-11.85L207.33-11.85Q206.23-11.65 204.43-11.5 202.63-11.35 200.48-11.28 198.33-11.2 196.18-11.2L196.18-11.2Q194.58-11.2 193.43-11.25 192.28-11.3 191.88-11.35L191.88-11.35 191.88-13.75Q192.43-13.75 193.56-13.75 194.68-13.75 196.08-13.8 197.48-13.85 198.81-13.95 200.13-14.05 201.03-14.2L201.03-14.2Q200.98-15.25 200.46-16.32 199.93-17.4 198.88-18.15 197.83-18.9 196.18-18.9L196.18-18.9Q195.18-17.95 194.58-16.28 193.98-14.6 193.98-12.4L193.98-12.4Q193.98-7.9 195.86-5.78 197.73-3.65 200.48-3.65L200.48-3.65Q203.28-3.65 206.38-5.65L206.38-5.65 207.48-3.35Q205.33-1.4 202.88-0.55 200.43 0.3 198.03 0.3L198.03 0.3Q195.23 0.3 192.81-0.93 190.38-2.15 188.91-4.6 187.43-7.05 187.43-10.7L187.43-10.7Q187.43-14.4 188.96-16.88 190.48-19.35 192.91-20.6 195.33-21.85 198.03-21.85ZM219.98-37.25L219.98-37.25Q219.93-28.75 219.95-19.93 219.98-11.1 220.13-2.9L220.13-2.9 224.08-1.85 223.13 0Q222.23-0.05 221.45-0.08 220.68-0.1 219.6-0.13 218.53-0.15 216.68-0.15L216.68-0.15Q215.03-0.15 213.95-0.13 212.88-0.1 212.03-0.08 211.18-0.05 210.13 0L210.13 0 209.18-1.85 213.13-2.9Q213.23-8.25 213.25-13.88 213.28-19.5 213.2-24.63 213.13-29.75 212.93-33.6L212.93-33.6 208.63-34.3 208.13-36.25Q209.28-36.35 211.23-36.45 213.18-36.55 215.5-36.75 217.83-36.95 219.98-37.25Z" fill="#000000" data-fill-palette-color="primary"></path></g></svg></g></svg></g></svg></g></svg></g></svg></g></svg></g></svg></g><g><path d="M0 123.6c0-68.262 55.338-123.6 123.6-123.6 56.392 0 103.963 37.765 118.803 89.383h-2.601c-14.765-50.222-61.202-86.887-116.202-86.887-66.884 0-121.104 54.22-121.104 121.104 0 66.884 54.22 121.104 121.104 121.104 55.001 0 101.438-36.665 116.202-86.887h2.601c-14.84 51.619-62.411 89.383-118.803 89.383-68.262 0-123.6-55.338-123.6-123.6z" fill="#000000" stroke="transparent" data-fill-palette-color="tertiary"></path></g></svg></g><defs></defs></svg><rect width="395.52" height="247.2" fill="none" stroke="none" visibility="hidden"></rect></g></svg></g></svg>